<svg xmlns="http://www.w3.org/2000/svg" xmlns:xlink="http://www.w3.org/1999/xlink" version="1.1" x="0px" y="0px" viewBox="0 0 100 125" enable-background="new 0 0 100 100" xml:space="preserve"><g><g><path d="M54.934,22.197c0.443,0.066,0.896,0.099,1.34,0.1c4.438,0,8.27-3.31,8.912-7.696c0.356-2.382-0.232-4.76-1.668-6.695    C62.08,5.967,59.969,4.704,57.58,4.35c-0.443-0.066-0.896-0.1-1.344-0.1c-4.426,0-8.252,3.309-8.903,7.696    C46.602,16.867,50.013,21.465,54.934,22.197z M48.814,12.167c0.543-3.658,3.734-6.417,7.422-6.417    c0.371,0,0.748,0.028,1.119,0.084c1.998,0.295,3.758,1.348,4.955,2.965c1.192,1.612,1.688,3.594,1.392,5.581    c-0.538,3.658-3.731,6.417-7.429,6.417c-0.371,0-0.748-0.028-1.119-0.083C51.051,20.104,48.207,16.269,48.814,12.167z"/><path d="M32.166,47l-2.619,0.53l-0.622-2.447l-0.71,0.157c-1.674,0.37-2.843,1.793-2.843,3.461v1.41h7.197V48.7    c0-0.384-0.1-0.707-0.205-1.05L32.166,47z M26.874,48.61c0.031-0.68,0.406-1.281,0.984-1.634l0.411,1.615l0.004,0.019H26.874z"/><path d="M74.129,54.818l0.271,1.38l7.057-1.388l-0.27-1.381c-0.209-1.063-0.908-1.969-1.916-2.482l-0.266-0.135L74.768,52    l-0.152,0.251C74.131,53.039,73.959,53.95,74.129,54.818z M75.76,53.281l3.065-0.859c0.44,0.296,0.751,0.723,0.87,1.206    l-4.11,0.808C75.529,54.047,75.588,53.654,75.76,53.281z"/><path d="M64.161,53.814l0.001-0.006c0.048-0.304,0.097-0.613,0.097-0.953l0.162-16.169l4.829,3.312l3.813,10.916    c-0.021,0.025-0.041,0.054-0.061,0.083c-0.818,1.222-1.124,2.681-0.863,4.116l-4.584,0.906l5.104,30.188l22.294-4.381    l-7.42-29.739l-4.389,0.858c-0.386-1.789-1.648-3.281-3.369-3.993L76.996,36.21c-0.264-0.96-0.866-1.801-1.694-2.367    l-14.509-9.934c-0.072-0.047-1.79-1.149-3.979-1.149l-0.184-0.002c-2.05,0-4.064,0.901-5.572,2.514    c-0.072,0.092-0.73,0.913-0.937,1.261L41.82,38.014l-15.062,4.583l0.238,0.953c-1.335,0.5-2.401,1.458-3.025,2.657l-0.17-0.093    l-5.634-3.563L5.049,61.968l11.361,7.089l0.077-1.721l-9.325-5.818l11.434-16.918l3.438,2.175l1.452,0.825    c-0.069,0.33-0.118,0.666-0.123,1.013h-4.667l-1.18,32.344h22.727L39.06,48.61h-4.483c-0.006-0.194-0.032-0.377-0.067-0.55    l10.898-2.192c0.971-0.247,1.826-0.827,2.409-1.633l1.044-1.446l-0.091,9.896c-0.008,0.179,0.01,0.354,0.031,0.527l0.002,0.018    l-6.559,17.234c-0.207,0.553-0.318,1.117-0.332,1.719l0.44,23.563h8.082l1.691-22.434l3.23-8.484l1.168,8.343    c0.066,0.479,0.203,0.942,0.416,1.433l10.744,20.723l7.029-3.171L66.57,71.043L64.161,53.814z M68.364,93.375L58.295,73.958    c-0.141-0.319-0.234-0.656-0.285-0.997l-1.978-14.124l-5.347,14.05L49.044,94.25h-5.219l-0.413-22.063    c0.01-0.398,0.089-0.799,0.235-1.189l6.621-17.4l0.06-0.158L50.29,53.04c-0.012-0.099-0.026-0.188-0.021-0.313l0.135-14.635    L46.6,43.356c-0.377,0.522-0.932,0.897-1.524,1.049l-12.414,2.496l0.271,1.041c0.079,0.281,0.146,0.524,0.146,0.758v1.41h4.536    l1.071,29.344H19.073l1.069-29.344h4.72V48.7c0-1.861,1.318-3.469,3.206-3.91l0.741-0.173l-0.249-1l14.181-4.315l8.636-11.947    c0.141-0.236,0.598-0.826,0.814-1.101c1.187-1.269,2.806-1.997,4.438-1.997l0.161,0.002c1.748,0,3.165,0.896,3.165,0.896    l14.495,9.924c0.535,0.367,0.925,0.909,1.086,1.488l2.945,13.524l0.406,0.134c1.44,0.474,2.514,1.662,2.795,3.1l0.271,1.383    l4.462-0.874l6.689,26.825l-19.229,3.78l-4.604-27.234l4.617-0.913l-0.269-1.381c-0.212-1.073,0.009-2.167,0.647-3.097    c0.063-0.063,0.156-0.142,0.248-0.254l0.239-0.321l-4.263-12.203l-7.559-5.181L62.75,52.846c0,0.249-0.041,0.487-0.078,0.729    L62.643,53.8L65.1,71.334l7.707,20.035L68.364,93.375z"/></g></g><text x="0" y="115" fill="#000000" font-size="5px" font-weight="bold" font-family="'Helvetica Neue', Helvetica, Arial-Unicode, Arial, Sans-serif">Created by Juan Pablo Bravo</text><text x="0" y="120" fill="#000000" font-size="5px" font-weight="bold" font-family="'Helvetica Neue', Helvetica, Arial-Unicode, Arial, Sans-serif">from the Noun Project</text></svg>